<svg version="1" xmlns="http://www.w3.org/2000/svg" width="682.667" height="682.667" viewBox="0 0 512.000000 512.000000"><path d="M236.5 22.7c-45 3.9-90.8 22.6-127 51.9-11.9 9.5-30.2 28.4-39.2 40.5-25.6 34.1-41.6 74.3-46.4 116.8-1.7 15.3-.7 49.5 2 64.1 16.6 92.8 84 165.9 173.7 188.6 20.9 5.2 34 6.8 57.9 6.8 40.1.1 72.3-7.5 107.4-25.4 45.1-23 80.9-59.4 103.6-105.5 22.5-45.6 29.4-95.1 20.4-145.9-8.9-50.1-35.6-97.9-73.7-132.1-36.8-33-81.5-53.3-129.9-59-11.4-1.3-37.7-1.8-48.8-.8zm49.6 71.2c14 2.7 31.7 6.1 39.5 7.7l14 2.8 4.1-4.1c7.6-7.6 18.1-7.6 25.8.2 11.7 11.7 6.4 33-9.1 36.5-8.5 1.9-17-2.7-21.1-11.6-2.2-4.9-2.7-5.3-7.1-6.3-15.9-3.3-62.4-12.2-62.7-11.9-.5.4-12.5 70.4-12.5 72.4 0 1.2 7.1 1.4 41.8 1.4 41.6 0 41.7 0 46.7 2.4 5.9 2.7 10.5 7 13.1 12.3 1.8 3.6 1.9 7.4 1.9 91.3v87.5l-2.7 4.6c-3.1 5.3-7.3 9.2-12.7 11.7-3.3 1.6-10.5 1.7-89.6 1.7h-86l-5.8-2.9c-3.8-1.8-6.9-4.3-8.8-6.9-6.1-8.4-6-6.2-5.7-98.3.3-92.9-.1-86.9 6.9-94.9 1.9-2.1 5.6-4.9 8.4-6.1 4.9-2.4 5.4-2.4 41.2-2.4h36.1l.6-2.8c.3-1.5 3.5-20.3 7.1-41.7 7.1-42.3 8.1-47.5 10-47.5.6 0 12.6 2.2 26.6 4.9z"/><path d="M297.2 223.8c-11.5 4.1-18.2 13.3-18.2 25.1.1 11.7 6.4 21.2 16.7 25.1 18.2 6.8 36.2-5.7 36.3-25.1 0-18.2-17.9-31.1-34.8-25.1zM197.4 224.8c-6.2 2.2-10.1 5.1-13.7 10.4-7.3 10.9-5.8 25.5 3.5 34.8 13.3 13.3 36.9 8.3 44.3-9.4 1.9-4.6 1.9-15.6 0-20.2-5.5-13.2-21-20.3-34.1-15.6zM192.6 326.1c-5.3 4.2-1.9 10.3 10.2 18.2 8.8 5.7 16.8 9.2 27.8 11.9 7.4 1.8 11.7 2.2 24.9 2.2 22.8 0 37.2-3.6 53.6-13.4 7.7-4.5 16.9-12.5 16.9-14.6 0-2.4-4.7-6.4-7.4-6.4-1.6 0-4.9 1.9-8.6 4.8-28.6 23.1-81 22.9-106.8-.3-5.6-5.1-6.8-5.4-10.6-2.4z"/></svg>